<svg data-v-423bf9ae="" xmlns="http://www.w3.org/2000/svg" viewBox="0 0 507 90" class="iconLeftSlogan"><!----><!----><!----><g data-v-423bf9ae="" id="fc731b81-37ca-40ac-a13a-90e1b1ee8db9" fill="black" transform="matrix(4.55927038192749,0,0,4.55927038192749,137.94833374023438,-16.550155639648438)"><path d="M4.19 14.11L4.19 14.11Q3.07 14.11 2.22 13.74L2.22 13.74L2.22 13.74Q1.37 13.37 0.91 12.68L0.91 12.68L0.91 12.68Q0.45 11.98 0.45 11.07L0.45 11.07L0.45 10.89L0.45 10.89Q0.45 10.78 0.52 10.71L0.52 10.71L0.52 10.71Q0.59 10.64 0.70 10.64L0.70 10.64L2.48 10.64L2.48 10.64Q2.59 10.64 2.66 10.69L2.66 10.69L2.66 10.69Q2.73 10.74 2.73 10.81L2.73 10.81L2.73 10.98L2.73 10.98Q2.73 11.42 3.19 11.77L3.19 11.77L3.19 11.77Q3.64 12.12 4.35 12.12L4.35 12.12L4.35 12.12Q4.97 12.12 5.26 11.86L5.26 11.86L5.26 11.86Q5.56 11.59 5.56 11.24L5.56 11.24L5.56 11.24Q5.56 10.85 5.21 10.64L5.21 10.64L5.21 10.64Q4.87 10.43 3.99 10.15L3.99 10.15L3.68 10.05L3.68 10.05Q2.79 9.76 2.11 9.41L2.11 9.41L2.11 9.41Q1.44 9.07 0.97 8.46L0.97 8.46L0.97 8.46Q0.49 7.85 0.49 6.96L0.49 6.96L0.49 6.96Q0.49 6.09 0.95 5.44L0.95 5.44L0.95 5.44Q1.40 4.79 2.21 4.44L2.21 4.44L2.21 4.44Q3.01 4.09 4.03 4.09L4.03 4.09L4.03 4.09Q5.11 4.09 5.97 4.48L5.97 4.48L5.97 4.48Q6.83 4.87 7.32 5.59L7.32 5.59L7.32 5.59Q7.81 6.30 7.81 7.22L7.81 7.22L7.81 7.34L7.81 7.34Q7.81 7.45 7.74 7.52L7.74 7.52L7.74 7.52Q7.67 7.59 7.56 7.59L7.56 7.59L5.78 7.59L5.78 7.59Q5.67 7.59 5.60 7.55L5.60 7.55L5.60 7.55Q5.53 7.52 5.53 7.45L5.53 7.45L5.53 7.32L5.53 7.32Q5.53 6.83 5.10 6.45L5.10 6.45L5.10 6.45Q4.66 6.08 3.93 6.08L3.93 6.08L3.93 6.08Q3.39 6.08 3.08 6.30L3.08 6.30L3.08 6.30Q2.77 6.52 2.77 6.93L2.77 6.93L2.77 6.93Q2.77 7.24 2.97 7.44L2.97 7.44L2.97 7.44Q3.16 7.64 3.58 7.82L3.58 7.82L3.58 7.82Q3.99 7.99 4.84 8.27L4.84 8.27L4.84 8.27Q5.82 8.61 6.37 8.86L6.37 8.86L6.37 8.86Q6.92 9.11 7.40 9.68L7.40 9.68L7.40 9.68Q7.88 10.25 7.88 11.17L7.88 11.17L7.88 11.17Q7.88 12.05 7.42 12.72L7.42 12.72L7.42 12.72Q6.96 13.38 6.12 13.75L6.12 13.75L6.12 13.75Q5.28 14.11 4.19 14.11L4.19 14.11ZM10.19 6.29L10.19 6.29Q9.58 6.29 9.20 5.91L9.20 5.91L9.20 5.91Q8.82 5.54 8.82 4.94L8.82 4.94L8.82 4.94Q8.82 4.35 9.20 3.99L9.20 3.99L9.20 3.99Q9.58 3.63 10.19 3.63L10.19 3.63L10.19 3.63Q10.81 3.63 11.19 3.99L11.19 3.99L11.19 3.99Q11.56 4.35 11.56 4.94L11.56 4.94L11.56 4.94Q11.56 5.54 11.19 5.91L11.19 5.91L11.19 5.91Q10.81 6.29 10.19 6.29L10.19 6.29ZM9.28 14L9.28 14Q9.17 14 9.10 13.93L9.10 13.93L9.10 13.93Q9.03 13.86 9.03 13.75L9.03 13.75L9.03 7.01L9.03 7.01Q9.03 6.90 9.10 6.83L9.10 6.83L9.10 6.83Q9.17 6.76 9.28 6.76L9.28 6.76L11.10 6.76L11.10 6.76Q11.21 6.76 11.28 6.83L11.28 6.83L11.28 6.83Q11.35 6.90 11.35 7.01L11.35 7.01L11.35 13.75L11.35 13.75Q11.35 13.86 11.28 13.93L11.28 13.93L11.28 13.93Q11.21 14 11.10 14L11.10 14L9.28 14ZM17.09 8.37L17.09 8.37Q17.09 8.48 17.02 8.55L17.02 8.55L17.02 8.55Q16.95 8.62 16.84 8.62L16.84 8.62L15.68 8.62L15.68 8.62Q15.58 8.62 15.58 8.72L15.58 8.72L15.58 11.17L15.58 11.17Q15.58 11.97 16.23 11.97L16.23 11.97L16.66 11.97L16.66 11.97Q16.77 11.97 16.84 12.04L16.84 12.04L16.84 12.04Q16.91 12.11 16.91 12.22L16.91 12.22L16.91 13.69L16.91 13.69Q16.91 13.92 16.67 13.94L16.67 13.94L16.67 13.94Q16.03 13.97 15.76 13.97L15.76 13.97L15.76 13.97Q14.55 13.97 13.96 13.58L13.96 13.58L13.96 13.58Q13.37 13.19 13.36 12.12L13.36 12.12L13.36 8.72L13.36 8.72Q13.36 8.62 13.26 8.62L13.26 8.62L12.57 8.62L12.57 8.62Q12.46 8.62 12.39 8.55L12.39 8.55L12.39 8.55Q12.32 8.48 12.32 8.37L12.32 8.37L12.32 7.01L12.32 7.01Q12.32 6.90 12.39 6.83L12.39 6.83L12.39 6.83Q12.46 6.76 12.57 6.76L12.57 6.76L13.26 6.76L13.26 6.76Q13.36 6.76 13.36 6.66L13.36 6.66L13.36 5.08L13.36 5.08Q13.36 4.97 13.43 4.90L13.43 4.90L13.43 4.90Q13.50 4.83 13.61 4.83L13.61 4.83L15.33 4.83L15.33 4.83Q15.44 4.83 15.51 4.90L15.51 4.90L15.51 4.90Q15.58 4.97 15.58 5.08L15.58 5.08L15.58 6.66L15.58 6.66Q15.58 6.76 15.68 6.76L15.68 6.76L16.84 6.76L16.84 6.76Q16.95 6.76 17.02 6.83L17.02 6.83L17.02 6.83Q17.09 6.90 17.09 7.01L17.09 7.01L17.09 8.37ZM21.67 12.14L21.67 12.14Q22.11 12.14 22.48 12.00L22.48 12.00L22.48 12.00Q22.85 11.87 23.10 11.65L23.10 11.65L23.10 11.65Q23.18 11.55 23.28 11.55L23.28 11.55L23.28 11.55Q23.37 11.55 23.45 11.65L23.45 11.65L24.32 12.68L24.32 12.68Q24.40 12.78 24.40 12.87L24.40 12.87L24.40 12.87Q24.40 12.96 24.32 13.05L24.32 13.05L24.32 13.05Q23.84 13.55 23.11 13.83L23.11 13.83L23.11 13.83Q22.39 14.11 21.56 14.11L21.56 14.11L21.56 14.11Q20.61 14.11 19.87 13.77L19.87 13.77L19.87 13.77Q19.14 13.43 18.66 12.81L18.66 12.81L18.66 12.81Q17.89 11.83 17.89 10.32L17.89 10.32L17.89 10.32Q17.89 9.65 18.05 9.06L18.05 9.06L18.05 9.06Q18.35 7.97 19.25 7.30L19.25 7.30L19.25 7.30Q20.15 6.64 21.35 6.64L21.35 6.64L21.35 6.64Q22.75 6.64 23.61 7.50L23.61 7.50L23.61 7.50Q24.47 8.37 24.74 9.93L24.74 9.93L24.74 9.93Q24.79 10.32 24.82 10.78L24.82 10.78L24.82 10.78Q24.82 11.03 24.57 11.03L24.57 11.03L20.34 11.03L20.34 11.03Q20.30 11.03 20.27 11.06L20.27 11.06L20.27 11.06Q20.23 11.09 20.24 11.14L20.24 11.14L20.33 11.42L20.33 11.42Q20.47 11.76 20.82 11.95L20.82 11.95L20.82 11.95Q21.17 12.14 21.67 12.14L21.67 12.14ZM21.31 8.64L21.31 8.64Q20.59 8.64 20.34 9.32L20.34 9.32L20.34 9.32Q20.29 9.46 20.27 9.53L20.27 9.53L20.27 9.56L20.27 9.56Q20.27 9.65 20.37 9.65L20.37 9.65L22.29 9.65L22.29 9.65Q22.34 9.65 22.36 9.61L22.36 9.61L22.36 9.61Q22.39 9.58 22.37 9.53L22.37 9.53L22.32 9.35L22.32 9.35Q22.20 9.02 21.95 8.83L21.95 8.83L21.95 8.83Q21.70 8.64 21.31 8.64L21.31 8.64ZM28.84 14.11L28.84 14.11Q27.85 14.11 27.11 13.84L27.11 13.84L27.11 13.84Q26.38 13.57 25.98 13.07L25.98 13.07L25.98 13.07Q25.58 12.57 25.58 11.93L25.58 11.93L25.58 11.86L25.58 11.86Q25.58 11.75 25.65 11.68L25.65 11.68L25.65 11.68Q25.72 11.61 25.83 11.61L25.83 11.61L27.55 11.61L27.55 11.61Q27.80 11.61 27.80 11.69L27.80 11.69L27.80 11.77L27.80 11.77Q27.80 12.04 28.09 12.21L28.09 12.21L28.09 12.21Q28.38 12.39 28.83 12.39L28.83 12.39L28.83 12.39Q29.22 12.39 29.46 12.26L29.46 12.26L29.46 12.26Q29.69 12.12 29.69 11.90L29.69 11.90L29.69 11.90Q29.69 11.68 29.44 11.57L29.44 11.57L29.44 11.57Q29.19 11.47 28.64 11.37L28.64 11.37L28.64 11.37Q27.76 11.20 27.22 10.96L27.22 10.96L27.22 10.96Q26.52 10.67 26.09 10.22L26.09 10.22L26.09 10.22Q25.66 9.77 25.66 9.02L25.66 9.02L25.66 9.02Q25.66 7.92 26.51 7.29L26.51 7.29L26.51 7.29Q27.36 6.65 28.74 6.65L28.74 6.65L28.74 6.65Q29.68 6.65 30.39 6.95L30.39 6.95L30.39 6.95Q31.09 7.25 31.49 7.80L31.49 7.80L31.49 7.80Q31.88 8.34 31.88 9.06L31.88 9.06L31.88 9.06Q31.88 9.13 31.81 9.18L31.81 9.18L31.81 9.18Q31.74 9.23 31.63 9.23L31.63 9.23L29.96 9.23L29.96 9.23Q29.71 9.23 29.71 9.14L29.71 9.14L29.71 9.06L29.71 9.06Q29.71 8.79 29.46 8.62L29.46 8.62L29.46 8.62Q29.20 8.46 28.77 8.46L28.77 8.46L28.77 8.46Q28.38 8.46 28.13 8.59L28.13 8.59L28.13 8.59Q27.89 8.72 27.89 8.96L27.89 8.96L27.89 8.96Q27.89 9.20 28.15 9.30L28.15 9.30L28.15 9.30Q28.42 9.41 29.05 9.53L29.05 9.53L29.05 9.53Q29.90 9.70 30.20 9.80L30.20 9.80L30.20 9.80Q31.05 10.08 31.53 10.56L31.53 10.56L31.53 10.56Q32.02 11.03 32.02 11.83L32.02 11.83L32.02 11.83Q32.02 12.92 31.16 13.52L31.16 13.52L31.16 13.52Q30.30 14.11 28.84 14.11L28.84 14.11ZM42.43 8.58L42.43 8.58Q42.73 9.35 42.73 10.35L42.73 10.35L42.73 10.35Q42.73 11.27 42.50 11.96L42.50 11.96L42.50 11.96Q42.22 12.91 41.45 13.51L41.45 13.51L41.45 13.51Q40.68 14.11 39.77 14.11L39.77 14.11L39.77 14.11Q38.71 14.11 38.18 13.37L38.18 13.37L38.18 13.37Q38.14 13.31 38.10 13.33L38.10 13.33L38.10 13.33Q38.07 13.34 38.07 13.41L38.07 13.41L38.07 13.75L38.07 13.75Q38.07 13.86 38.00 13.93L38.00 13.93L38.00 13.93Q37.93 14 37.81 14L37.81 14L35.99 14L35.99 14Q35.88 14 35.81 13.93L35.81 13.93L35.81 13.93Q35.74 13.86 35.74 13.75L35.74 13.75L35.74 4.45L35.74 4.45Q35.74 4.34 35.81 4.27L35.81 4.27L35.81 4.27Q35.88 4.20 35.99 4.20L35.99 4.20L37.81 4.20L37.81 4.20Q37.93 4.20 38.00 4.27L38.00 4.27L38.00 4.27Q38.07 4.34 38.07 4.45L38.07 4.45L38.07 7.24L38.07 7.24Q38.07 7.31 38.10 7.32L38.10 7.32L38.10 7.32Q38.14 7.34 38.18 7.28L38.18 7.28L38.18 7.28Q38.71 6.64 39.77 6.64L39.77 6.64L39.77 6.64Q40.67 6.64 41.39 7.17L41.39 7.17L41.39 7.17Q42.11 7.71 42.43 8.58L42.43 8.58ZM40.00 11.55L40.00 11.55Q40.24 11.10 40.24 10.39L40.24 10.39L40.24 10.39Q40.24 9.63 39.98 9.17L39.98 9.17L39.98 9.17Q39.69 8.68 39.14 8.68L39.14 8.68L39.14 8.68Q38.63 8.68 38.33 9.16L38.33 9.16L38.33 9.16Q38.08 9.62 38.08 10.39L38.08 10.39L38.08 10.39Q38.08 11.09 38.32 11.54L38.32 11.54L38.32 11.54Q38.61 12.07 39.14 12.07L39.14 12.07L39.14 12.07Q39.70 12.07 40.00 11.55L40.00 11.55ZM43.65 16.79L43.65 16.79Q43.61 16.79 43.58 16.72L43.58 16.72L43.58 16.72Q43.55 16.65 43.55 16.53L43.55 16.53L43.55 15.13L43.55 15.13Q43.55 15.02 43.58 14.95L43.58 14.95L43.58 14.95Q43.61 14.88 43.64 14.88L43.64 14.88L43.71 14.88L43.71 14.88Q44.60 14.88 44.98 14.73L44.98 14.73L44.98 14.73Q45.36 14.57 45.46 14.07L45.46 14.07L45.46 14.07Q45.47 14.01 45.46 13.94L45.46 13.94L43.25 7.04L43.25 7.04Q43.23 7 43.23 6.94L43.23 6.94L43.23 6.94Q43.23 6.76 43.44 6.76L43.44 6.76L45.40 6.76L45.40 6.76Q45.51 6.76 45.59 6.83L45.59 6.83L45.59 6.83Q45.67 6.89 45.68 6.99L45.68 6.99L46.59 10.64L46.59 10.64Q46.62 10.70 46.65 10.70L46.65 10.70L46.65 10.70Q46.69 10.70 46.70 10.64L46.70 10.64L47.59 6.99L47.59 6.99Q47.60 6.89 47.68 6.83L47.68 6.83L47.68 6.83Q47.75 6.76 47.87 6.76L47.87 6.76L49.81 6.76L49.81 6.76Q49.95 6.76 50.01 6.84L50.01 6.84L50.01 6.84Q50.06 6.92 50.02 7.04L50.02 7.04L47.70 14.14L47.70 14.14Q47.35 15.19 46.96 15.73L46.96 15.73L46.96 15.73Q46.58 16.27 45.84 16.53L45.84 16.53L45.84 16.53Q45.11 16.79 43.75 16.79L43.75 16.79L43.65 16.79ZM54.03 14L54.03 14Q53.91 14 53.84 13.93L53.84 13.93L53.84 13.93Q53.77 13.86 53.77 13.75L53.77 13.75L53.77 4.45L53.77 4.45Q53.77 4.34 53.84 4.27L53.84 4.27L53.84 4.27Q53.91 4.20 54.03 4.20L54.03 4.20L55.75 4.20L55.75 4.20Q55.94 4.20 56.04 4.37L56.04 4.37L59.12 9.58L59.12 9.58Q59.15 9.63 59.19 9.62L59.19 9.62L59.19 9.62Q59.23 9.60 59.23 9.53L59.23 9.53L59.22 4.45L59.22 4.45Q59.22 4.34 59.29 4.27L59.29 4.27L59.29 4.27Q59.36 4.20 59.47 4.20L59.47 4.20L61.26 4.20L61.26 4.20Q61.38 4.20 61.45 4.27L61.45 4.27L61.45 4.27Q61.52 4.34 61.52 4.45L61.52 4.45L61.52 13.75L61.52 13.75Q61.52 13.86 61.45 13.93L61.45 13.93L61.45 13.93Q61.38 14 61.26 14L61.26 14L59.54 14L59.54 14Q59.36 14 59.25 13.83L59.25 13.83L56.17 8.55L56.17 8.55Q56.14 8.48 56.09 8.50L56.09 8.50L56.09 8.50Q56.04 8.51 56.04 8.58L56.04 8.58L56.07 13.75L56.07 13.75Q56.07 13.86 56.00 13.93L56.00 13.93L56.00 13.93Q55.93 14 55.82 14L55.82 14L54.03 14ZM64.08 6.29L64.08 6.29Q63.46 6.29 63.08 5.91L63.08 5.91L63.08 5.91Q62.71 5.54 62.71 4.94L62.71 4.94L62.71 4.94Q62.71 4.35 63.08 3.99L63.08 3.99L63.08 3.99Q63.46 3.63 64.08 3.63L64.08 3.63L64.08 3.63Q64.69 3.63 65.07 3.99L65.07 3.99L65.07 3.99Q65.45 4.35 65.45 4.94L65.45 4.94L65.45 4.94Q65.45 5.54 65.07 5.91L65.07 5.91L65.07 5.91Q64.69 6.29 64.08 6.29L64.08 6.29ZM63.17 14L63.17 14Q63.06 14 62.99 13.93L62.99 13.93L62.99 13.93Q62.92 13.86 62.92 13.75L62.92 13.75L62.92 7.01L62.92 7.01Q62.92 6.90 62.99 6.83L62.99 6.83L62.99 6.83Q63.06 6.76 63.17 6.76L63.17 6.76L64.99 6.76L64.99 6.76Q65.10 6.76 65.17 6.83L65.17 6.83L65.17 6.83Q65.24 6.90 65.24 7.01L65.24 7.01L65.24 13.75L65.24 13.75Q65.24 13.86 65.17 13.93L65.17 13.93L65.17 13.93Q65.10 14 64.99 14L64.99 14L63.17 14ZM69.85 14.11L69.85 14.11Q68.70 14.11 67.84 13.54L67.84 13.54L67.84 13.54Q66.98 12.96 66.61 11.96L66.61 11.96L66.61 11.96Q66.35 11.28 66.35 10.35L66.35 10.35L66.35 10.35Q66.35 9.41 66.61 8.74L66.61 8.74L66.61 8.74Q66.96 7.76 67.83 7.20L67.83 7.20L67.83 7.20Q68.70 6.65 69.85 6.65L69.85 6.65L69.85 6.65Q71.01 6.65 71.89 7.22L71.89 7.22L71.89 7.22Q72.77 7.80 73.08 8.68L73.08 8.68L73.08 8.68Q73.16 8.90 73.19 9.14L73.19 9.14L73.19 9.20L73.19 9.20Q73.19 9.38 72.97 9.42L72.97 9.42L71.19 9.69L71.12 9.70L71.12 9.70Q70.94 9.70 70.91 9.53L70.91 9.53L70.85 9.34L70.85 9.34Q70.77 9.03 70.49 8.83L70.49 8.83L70.49 8.83Q70.21 8.64 69.83 8.64L69.83 8.64L69.83 8.64Q69.09 8.64 68.85 9.30L68.85 9.30L68.85 9.30Q68.70 9.69 68.70 10.36L68.70 10.36L68.70 10.36Q68.70 10.96 68.84 11.41L68.84 11.41L68.84 11.41Q69.10 12.12 69.83 12.12L69.83 12.12L69.83 12.12Q70.20 12.12 70.45 11.94L70.45 11.94L70.45 11.94Q70.71 11.76 70.84 11.41L70.84 11.41L70.85 11.34L70.85 11.34L70.85 11.34Q70.87 11.27 70.96 11.19L70.96 11.19L70.96 11.19Q71.05 11.12 71.15 11.13L71.15 11.13L72.94 11.41L72.94 11.41Q73.19 11.45 73.15 11.69L73.15 11.69L73.15 11.69Q73.12 11.91 73.08 12.04L73.08 12.04L73.08 12.04Q72.74 13.02 71.87 13.57L71.87 13.57L71.87 13.57Q70.99 14.11 69.85 14.11L69.85 14.11ZM74.38 14L74.38 14Q74.27 14 74.20 13.93L74.20 13.93L74.20 13.93Q74.13 13.86 74.13 13.75L74.13 13.75L74.13 4.45L74.13 4.45Q74.13 4.34 74.20 4.27L74.20 4.27L74.20 4.27Q74.27 4.20 74.38 4.20L74.38 4.20L76.20 4.20L76.20 4.20Q76.31 4.20 76.38 4.27L76.38 4.27L76.38 4.27Q76.45 4.34 76.45 4.45L76.45 4.45L76.45 8.67L76.45 8.67Q76.45 8.74 76.50 8.75L76.50 8.75L76.50 8.75Q76.54 8.76 76.58 8.71L76.58 8.71L78.04 6.92L78.04 6.92Q78.15 6.76 78.34 6.76L78.34 6.76L80.42 6.76L80.42 6.76Q80.63 6.76 80.63 6.92L80.63 6.92L80.63 6.92Q80.63 7 80.57 7.07L80.57 7.07L78.83 9.31L78.83 9.31Q78.78 9.39 78.82 9.45L78.82 9.45L80.86 13.71L80.89 13.82L80.89 13.82Q80.89 14 80.67 14L80.67 14L78.78 14L78.78 14Q78.57 14 78.48 13.80L78.48 13.80L77.25 10.92L77.25 10.92Q77.24 10.86 77.19 10.86L77.19 10.86L77.19 10.86Q77.14 10.86 77.11 10.91L77.11 10.91L76.50 11.80L76.50 11.80Q76.45 11.84 76.45 11.93L76.45 11.93L76.45 13.75L76.45 13.75Q76.45 13.86 76.38 13.93L76.38 13.93L76.38 13.93Q76.31 14 76.20 14L76.20 14L74.38 14Z"></path></g><!----><g data-v-423bf9ae="" id="e488064f-230d-48db-ade0-ff20043c4980" transform="matrix(7.5,0,0,7.5,0,-15)" stroke="none" fill="black"><path d="M7.969 2L6 13.844 5.969 14h2.063l1.969-11.844.031-.156H7.969zM5 3.813l-.531.344-4 2.5L0 6.938v2.126l.469.281 4 2.5.531.344V9.814L2.094 8.001 5 6.188V3.813zm6 0v2.375l2.906 1.813L11 9.814v2.375l.531-.344 4-2.5.469-.281V6.938l-.469-.281-4-2.5L11 3.813z"></path></g><!----><g data-v-423bf9ae="" id="0d94ef23-eb11-4787-b295-e61445433f77" fill="black" transform="matrix(1.6463619470596313,0,0,1.6463619470596313,139.9341583251953,54.023704528808594)"><path d="M2.90 14L2.90 14Q2.67 14 2.62 13.79L2.62 13.79L0.06 4.48L0.06 4.48Q0.04 4.45 0.04 4.40L0.04 4.40L0.04 4.40Q0.04 4.20 0.27 4.20L0.27 4.20L2.23 4.20L2.23 4.20Q2.34 4.20 2.42 4.26L2.42 4.26L2.42 4.26Q2.49 4.33 2.51 4.42L2.51 4.42L3.68 9.37L3.68 9.37Q3.71 9.42 3.75 9.42L3.75 9.42L3.75 9.42Q3.78 9.42 3.79 9.37L3.79 9.37L4.93 4.42L4.93 4.42Q4.97 4.20 5.21 4.20L5.21 4.20L6.87 4.20L6.87 4.20Q7.10 4.20 7.15 4.42L7.15 4.42L8.39 9.37L8.39 9.37Q8.41 9.42 8.45 9.42L8.45 9.42L8.45 9.42Q8.48 9.42 8.50 9.37L8.50 9.37L9.59 4.42L9.59 4.42Q9.60 4.33 9.68 4.26L9.68 4.26L9.68 4.26Q9.76 4.20 9.87 4.20L9.87 4.20L11.77 4.20L11.77 4.20Q11.90 4.20 11.96 4.27L11.96 4.27L11.96 4.27Q12.03 4.34 12.00 4.48L12.00 4.48L9.67 13.78L9.67 13.78Q9.62 14 9.39 14L9.39 14L7.53 14L7.53 14Q7.42 14 7.34 13.94L7.34 13.94L7.34 13.94Q7.27 13.87 7.25 13.78L7.25 13.78L6.08 8.53L6.08 8.53Q6.06 8.46 6.02 8.46L6.02 8.46L6.02 8.46Q5.98 8.46 5.96 8.53L5.96 8.53L4.90 13.78L4.90 13.78Q4.86 14 4.63 14L4.63 14L2.90 14ZM16.27 12.14L16.27 12.14Q16.70 12.14 17.07 12.00L17.07 12.00L17.07 12.00Q17.44 11.87 17.70 11.65L17.70 11.65L17.70 11.65Q17.78 11.55 17.88 11.55L17.88 11.55L17.88 11.55Q17.96 11.55 18.05 11.65L18.05 11.65L18.91 12.68L18.91 12.68Q19.00 12.78 19.00 12.87L19.00 12.87L19.00 12.87Q19.00 12.96 18.91 13.05L18.91 13.05L18.91 13.05Q18.44 13.55 17.71 13.83L17.71 13.83L17.71 13.83Q16.98 14.11 16.16 14.11L16.16 14.11L16.16 14.11Q15.20 14.11 14.47 13.77L14.47 13.77L14.47 13.77Q13.73 13.43 13.26 12.81L13.26 12.81L13.26 12.81Q12.49 11.83 12.49 10.32L12.49 10.32L12.49 10.32Q12.49 9.65 12.64 9.06L12.64 9.06L12.64 9.06Q12.95 7.97 13.85 7.30L13.85 7.30L13.85 7.30Q14.74 6.64 15.95 6.64L15.95 6.64L15.95 6.64Q17.35 6.64 18.21 7.50L18.21 7.50L18.21 7.50Q19.07 8.37 19.33 9.93L19.33 9.93L19.33 9.93Q19.39 10.32 19.42 10.78L19.42 10.78L19.42 10.78Q19.42 11.03 19.17 11.03L19.17 11.03L14.94 11.03L14.94 11.03Q14.90 11.03 14.86 11.06L14.86 11.06L14.86 11.06Q14.83 11.09 14.84 11.14L14.84 11.14L14.92 11.42L14.92 11.42Q15.06 11.76 15.41 11.95L15.41 11.95L15.41 11.95Q15.76 12.14 16.27 12.14L16.27 12.14ZM15.90 8.64L15.90 8.64Q15.19 8.64 14.94 9.32L14.94 9.32L14.94 9.32Q14.88 9.46 14.87 9.53L14.87 9.53L14.87 9.56L14.87 9.56Q14.87 9.65 14.97 9.65L14.97 9.65L16.88 9.65L16.88 9.65Q16.94 9.65 16.96 9.61L16.96 9.61L16.96 9.61Q16.98 9.58 16.97 9.53L16.97 9.53L16.91 9.35L16.91 9.35Q16.80 9.02 16.55 8.83L16.55 8.83L16.55 8.83Q16.30 8.64 15.90 8.64L15.90 8.64ZM27.08 8.58L27.08 8.58Q27.37 9.35 27.37 10.35L27.37 10.35L27.37 10.35Q27.37 11.27 27.15 11.96L27.15 11.96L27.15 11.96Q26.87 12.91 26.10 13.51L26.10 13.51L26.10 13.51Q25.33 14.11 24.42 14.11L24.42 14.11L24.42 14.11Q23.35 14.11 22.82 13.37L22.82 13.37L22.82 13.37Q22.78 13.31 22.74 13.33L22.74 13.33L22.74 13.33Q22.71 13.34 22.71 13.41L22.71 13.41L22.71 13.75L22.71 13.75Q22.71 13.86 22.64 13.93L22.64 13.93L22.64 13.93Q22.57 14 22.46 14L22.46 14L20.64 14L20.64 14Q20.52 14 20.45 13.93L20.45 13.93L20.45 13.93Q20.38 13.86 20.38 13.75L20.38 13.75L20.38 4.45L20.38 4.45Q20.38 4.34 20.45 4.27L20.45 4.27L20.45 4.27Q20.52 4.20 20.64 4.20L20.64 4.20L22.46 4.20L22.46 4.20Q22.57 4.20 22.64 4.27L22.64 4.27L22.64 4.27Q22.71 4.34 22.71 4.45L22.71 4.45L22.71 7.24L22.71 7.24Q22.71 7.31 22.74 7.32L22.74 7.32L22.74 7.32Q22.78 7.34 22.82 7.28L22.82 7.28L22.82 7.28Q23.35 6.64 24.42 6.64L24.42 6.64L24.42 6.64Q25.31 6.64 26.03 7.17L26.03 7.17L26.03 7.17Q26.75 7.71 27.08 8.58L27.08 8.58ZM24.64 11.55L24.64 11.55Q24.88 11.10 24.88 10.39L24.88 10.39L24.88 10.39Q24.88 9.63 24.63 9.17L24.63 9.17L24.63 9.17Q24.33 8.68 23.79 8.68L23.79 8.68L23.79 8.68Q23.27 8.68 22.97 9.16L22.97 9.16L22.97 9.16Q22.72 9.62 22.72 10.39L22.72 10.39L22.72 10.39Q22.72 11.09 22.96 11.54L22.96 11.54L22.96 11.54Q23.25 12.07 23.79 12.07L23.79 12.07L23.79 12.07Q24.35 12.07 24.64 11.55L24.64 11.55ZM35.36 4.45L35.36 4.45Q35.36 4.34 35.43 4.27L35.43 4.27L35.43 4.27Q35.50 4.20 35.62 4.20L35.62 4.20L37.44 4.20L37.44 4.20Q37.55 4.20 37.62 4.27L37.62 4.27L37.62 4.27Q37.69 4.34 37.69 4.45L37.69 4.45L37.69 13.75L37.69 13.75Q37.69 13.86 37.62 13.93L37.62 13.93L37.62 13.93Q37.55 14 37.44 14L37.44 14L35.62 14L35.62 14Q35.50 14 35.43 13.93L35.43 13.93L35.43 13.93Q35.36 13.86 35.36 13.75L35.36 13.75L35.36 13.41L35.36 13.41Q35.36 13.34 35.33 13.33L35.33 13.33L35.33 13.33Q35.29 13.31 35.25 13.37L35.25 13.37L35.25 13.37Q34.72 14.11 33.66 14.11L33.66 14.11L33.66 14.11Q32.75 14.11 31.98 13.51L31.98 13.51L31.98 13.51Q31.21 12.91 30.93 11.96L30.93 11.96L30.93 11.96Q30.70 11.27 30.70 10.35L30.70 10.35L30.70 10.35Q30.70 9.35 31.00 8.58L31.00 8.58L31.00 8.58Q31.32 7.71 32.04 7.17L32.04 7.17L32.04 7.17Q32.76 6.64 33.66 6.64L33.66 6.64L33.66 6.64Q34.72 6.64 35.25 7.28L35.25 7.28L35.25 7.28Q35.29 7.34 35.33 7.32L35.33 7.32L35.33 7.32Q35.36 7.31 35.36 7.24L35.36 7.24L35.36 4.45ZM35.11 11.54L35.11 11.54Q35.35 11.09 35.35 10.39L35.35 10.39L35.35 10.39Q35.35 9.62 35.10 9.16L35.10 9.16L35.10 9.16Q34.80 8.68 34.29 8.68L34.29 8.68L34.29 8.68Q33.74 8.68 33.45 9.17L33.45 9.17L33.45 9.17Q33.19 9.63 33.19 10.39L33.19 10.39L33.19 10.39Q33.19 11.10 33.43 11.55L33.43 11.55L33.43 11.55Q33.73 12.07 34.29 12.07L34.29 12.07L34.29 12.07Q34.82 12.07 35.11 11.54L35.11 11.54ZM42.53 12.14L42.53 12.14Q42.97 12.14 43.34 12.00L43.34 12.00L43.34 12.00Q43.71 11.87 43.96 11.65L43.96 11.65L43.96 11.65Q44.04 11.55 44.14 11.55L44.14 11.55L44.14 11.55Q44.23 11.55 44.31 11.65L44.31 11.65L45.18 12.68L45.18 12.68Q45.26 12.78 45.26 12.87L45.26 12.87L45.26 12.87Q45.26 12.96 45.18 13.05L45.18 13.05L45.18 13.05Q44.70 13.55 43.97 13.83L43.97 13.83L43.97 13.83Q43.25 14.11 42.42 14.11L42.42 14.11L42.42 14.11Q41.47 14.11 40.73 13.77L40.73 13.77L40.73 13.77Q40.00 13.43 39.52 12.81L39.52 12.81L39.52 12.81Q38.75 11.83 38.75 10.32L38.75 10.32L38.75 10.32Q38.75 9.65 38.91 9.06L38.91 9.06L38.91 9.06Q39.21 7.97 40.11 7.30L40.11 7.30L40.11 7.30Q41.01 6.64 42.21 6.64L42.21 6.64L42.21 6.64Q43.61 6.64 44.47 7.50L44.47 7.50L44.47 7.50Q45.33 8.37 45.60 9.93L45.60 9.93L45.60 9.93Q45.65 10.32 45.68 10.78L45.68 10.78L45.68 10.78Q45.68 11.03 45.43 11.03L45.43 11.03L41.20 11.03L41.20 11.03Q41.16 11.03 41.13 11.06L41.13 11.06L41.13 11.06Q41.09 11.09 41.10 11.14L41.10 11.14L41.19 11.42L41.19 11.42Q41.33 11.76 41.68 11.95L41.68 11.95L41.68 11.95Q42.03 12.14 42.53 12.14L42.53 12.14ZM42.17 8.64L42.17 8.64Q41.45 8.64 41.20 9.32L41.20 9.32L41.20 9.32Q41.15 9.46 41.13 9.53L41.13 9.53L41.13 9.56L41.13 9.56Q41.13 9.65 41.23 9.65L41.23 9.65L43.15 9.65L43.15 9.65Q43.20 9.65 43.23 9.61L43.23 9.61L43.23 9.61Q43.25 9.58 43.23 9.53L43.23 9.53L43.18 9.35L43.18 9.35Q43.06 9.02 42.81 8.83L42.81 8.83L42.81 8.83Q42.56 8.64 42.17 8.64L42.17 8.64ZM49.70 14.11L49.70 14.11Q48.71 14.11 47.97 13.84L47.97 13.84L47.97 13.84Q47.24 13.57 46.84 13.07L46.84 13.07L46.84 13.07Q46.44 12.57 46.44 11.93L46.44 11.93L46.44 11.86L46.44 11.86Q46.44 11.75 46.51 11.68L46.51 11.68L46.51 11.68Q46.58 11.61 46.69 11.61L46.69 11.61L48.41 11.61L48.41 11.61Q48.66 11.61 48.66 11.69L48.66 11.69L48.66 11.77L48.66 11.77Q48.66 12.04 48.95 12.21L48.95 12.21L48.95 12.21Q49.24 12.39 49.69 12.39L49.69 12.39L49.69 12.39Q50.08 12.39 50.32 12.26L50.32 12.26L50.32 12.26Q50.55 12.12 50.55 11.90L50.55 11.90L50.55 11.90Q50.55 11.68 50.30 11.57L50.30 11.57L50.30 11.57Q50.05 11.47 49.50 11.37L49.50 11.37L49.50 11.37Q48.62 11.20 48.08 10.96L48.08 10.96L48.08 10.96Q47.38 10.67 46.95 10.22L46.95 10.22L46.95 10.22Q46.52 9.77 46.52 9.02L46.52 9.02L46.52 9.02Q46.52 7.92 47.37 7.29L47.37 7.29L47.37 7.29Q48.22 6.65 49.60 6.65L49.60 6.65L49.60 6.65Q50.54 6.65 51.25 6.95L51.25 6.95L51.25 6.95Q51.95 7.25 52.35 7.80L52.35 7.80L52.35 7.80Q52.74 8.34 52.74 9.06L52.74 9.06L52.74 9.06Q52.74 9.13 52.67 9.18L52.67 9.18L52.67 9.18Q52.60 9.23 52.49 9.23L52.49 9.23L50.82 9.23L50.82 9.23Q50.57 9.23 50.57 9.14L50.57 9.14L50.57 9.06L50.57 9.06Q50.57 8.79 50.32 8.62L50.32 8.62L50.32 8.62Q50.06 8.46 49.63 8.46L49.63 8.46L49.63 8.46Q49.24 8.46 48.99 8.59L48.99 8.59L48.99 8.59Q48.75 8.72 48.75 8.96L48.75 8.96L48.75 8.96Q48.75 9.20 49.01 9.30L49.01 9.30L49.01 9.30Q49.28 9.41 49.91 9.53L49.91 9.53L49.91 9.53Q50.76 9.70 51.06 9.80L51.06 9.80L51.06 9.80Q51.91 10.08 52.40 10.56L52.40 10.56L52.40 10.56Q52.88 11.03 52.88 11.83L52.88 11.83L52.88 11.83Q52.88 12.92 52.02 13.52L52.02 13.52L52.02 13.52Q51.16 14.11 49.70 14.11L49.70 14.11ZM55.05 6.29L55.05 6.29Q54.43 6.29 54.05 5.91L54.05 5.91L54.05 5.91Q53.68 5.54 53.68 4.94L53.68 4.94L53.68 4.94Q53.68 4.35 54.05 3.99L54.05 3.99L54.05 3.99Q54.43 3.63 55.05 3.63L55.05 3.63L55.05 3.63Q55.66 3.63 56.04 3.99L56.04 3.99L56.04 3.99Q56.42 4.35 56.42 4.94L56.42 4.94L56.42 4.94Q56.42 5.54 56.04 5.91L56.04 5.91L56.04 5.91Q55.66 6.29 55.05 6.29L55.05 6.29ZM54.14 14L54.14 14Q54.03 14 53.96 13.93L53.96 13.93L53.96 13.93Q53.89 13.86 53.89 13.75L53.89 13.75L53.89 7.01L53.89 7.01Q53.89 6.90 53.96 6.83L53.96 6.83L53.96 6.83Q54.03 6.76 54.14 6.76L54.14 6.76L55.96 6.76L55.96 6.76Q56.07 6.76 56.14 6.83L56.14 6.83L56.14 6.83Q56.21 6.90 56.21 7.01L56.21 7.01L56.21 13.75L56.21 13.75Q56.21 13.86 56.14 13.93L56.14 13.93L56.14 13.93Q56.07 14 55.96 14L55.96 14L54.14 14ZM61.88 7.01L61.88 7.01Q61.88 6.90 61.95 6.83L61.95 6.83L61.95 6.83Q62.02 6.76 62.13 6.76L62.13 6.76L63.95 6.76L63.95 6.76Q64.06 6.76 64.13 6.83L64.13 6.83L64.13 6.83Q64.20 6.90 64.20 7.01L64.20 7.01L64.20 13.19L64.20 13.19Q64.20 15.11 63.09 15.93L63.09 15.93L63.09 15.93Q61.98 16.76 60.30 16.76L60.30 16.76L60.30 16.76Q59.77 16.76 59.05 16.66L59.05 16.66L59.05 16.66Q58.81 16.62 58.83 16.38L58.83 16.38L58.90 14.83L58.90 14.83Q58.91 14.56 59.19 14.60L59.19 14.60L59.19 14.60Q59.75 14.71 60.17 14.71L60.17 14.71L60.17 14.71Q60.97 14.71 61.43 14.35L61.43 14.35L61.43 14.35Q61.88 13.99 61.88 13.20L61.88 13.20L61.73 13.34L61.73 13.34Q61.24 13.80 60.33 13.80L60.33 13.80L60.33 13.80Q59.40 13.80 58.63 13.40L58.63 13.40L58.63 13.40Q57.86 12.99 57.53 11.97L57.53 11.97L57.53 11.97Q57.30 11.30 57.30 10.32L57.30 10.32L57.30 10.32Q57.30 9.24 57.57 8.55L57.57 8.55L57.57 8.55Q57.89 7.69 58.60 7.17L58.60 7.17L58.60 7.17Q59.30 6.65 60.24 6.65L60.24 6.65L60.24 6.65Q61.22 6.65 61.77 7.22L61.77 7.22L61.77 7.22Q61.81 7.28 61.85 7.27L61.85 7.27L61.85 7.27Q61.88 7.25 61.88 7.18L61.88 7.18L61.88 7.01ZM61.75 11.35L61.75 11.35Q61.88 11.03 61.88 10.30L61.88 10.30L61.88 10.30Q61.88 9.93 61.85 9.71L61.85 9.71L61.85 9.71Q61.82 9.49 61.74 9.30L61.74 9.30L61.74 9.30Q61.63 8.99 61.38 8.81L61.38 8.81L61.38 8.81Q61.14 8.64 60.79 8.64L60.79 8.64L60.79 8.64Q60.13 8.64 59.85 9.30L59.85 9.30L59.85 9.30Q59.64 9.69 59.64 10.33L59.64 10.33L59.64 10.33Q59.64 11.02 59.82 11.34L59.82 11.34L59.82 11.34Q59.95 11.63 60.20 11.82L60.20 11.82L60.20 11.82Q60.45 12.00 60.80 12.00L60.80 12.00L60.80 12.00Q61.52 12.00 61.75 11.35L61.75 11.35ZM69.45 6.65L69.45 6.65Q70.55 6.65 71.24 7.34L71.24 7.34L71.24 7.34Q71.93 8.04 71.93 9.23L71.93 9.23L71.93 13.75L71.93 13.75Q71.93 13.86 71.86 13.93L71.86 13.93L71.86 13.93Q71.79 14 71.68 14L71.68 14L69.86 14L69.86 14Q69.75 14 69.68 13.93L69.68 13.93L69.68 13.93Q69.61 13.86 69.61 13.75L69.61 13.75L69.61 9.73L69.61 9.73Q69.61 9.24 69.35 8.94L69.35 8.94L69.35 8.94Q69.09 8.64 68.66 8.64L68.66 8.64L68.66 8.64Q68.22 8.64 67.96 8.94L67.96 8.94L67.96 8.94Q67.69 9.24 67.69 9.73L67.69 9.73L67.69 13.75L67.69 13.75Q67.69 13.86 67.62 13.93L67.62 13.93L67.62 13.93Q67.55 14 67.44 14L67.44 14L65.62 14L65.62 14Q65.51 14 65.44 13.93L65.44 13.93L65.44 13.93Q65.37 13.86 65.37 13.75L65.37 13.75L65.37 7.01L65.37 7.01Q65.37 6.90 65.44 6.83L65.44 6.83L65.44 6.83Q65.51 6.76 65.62 6.76L65.62 6.76L67.44 6.76L67.44 6.76Q67.55 6.76 67.62 6.83L67.62 6.83L67.62 6.83Q67.69 6.90 67.69 7.01L67.69 7.01L67.69 7.41L67.69 7.41Q67.69 7.48 67.73 7.49L67.73 7.49L67.73 7.49Q67.76 7.50 67.79 7.45L67.79 7.45L67.79 7.45Q68.36 6.65 69.45 6.65L69.45 6.65ZM78.90 6.65L78.90 6.65Q79.83 6.65 80.58 6.96L80.58 6.96L80.58 6.96Q81.34 7.28 81.77 7.83L81.77 7.83L81.77 7.83Q82.21 8.39 82.21 9.06L82.21 9.06L82.21 13.75L82.21 13.75Q82.21 13.86 82.14 13.93L82.14 13.93L82.14 13.93Q82.07 14 81.96 14L81.96 14L80.14 14L80.14 14Q80.02 14 79.95 13.93L79.95 13.93L79.95 13.93Q79.88 13.86 79.88 13.75L79.88 13.75L79.88 13.47L79.88 13.47Q79.88 13.40 79.85 13.38L79.85 13.38L79.85 13.38Q79.81 13.37 79.77 13.43L79.77 13.43L79.77 13.43Q79.21 14.11 77.97 14.11L77.97 14.11L77.97 14.11Q76.86 14.11 76.20 13.59L76.20 13.59L76.20 13.59Q75.54 13.06 75.54 12.04L75.54 12.04L75.54 12.04Q75.54 10.96 76.29 10.37L76.29 10.37L76.29 10.37Q77.04 9.79 78.46 9.79L78.46 9.79L79.79 9.79L79.79 9.79Q79.88 9.79 79.88 9.69L79.88 9.69L79.88 9.45L79.88 9.45Q79.88 9.07 79.64 8.86L79.64 8.86L79.64 8.86Q79.39 8.64 78.95 8.64L78.95 8.64L78.95 8.64Q78.62 8.64 78.39 8.74L78.39 8.74L78.39 8.74Q78.16 8.85 78.06 9.03L78.06 9.03L78.06 9.03Q77.99 9.13 77.93 9.18L77.93 9.18L77.93 9.18Q77.87 9.23 77.77 9.21L77.77 9.21L75.89 8.97L75.89 8.97Q75.64 8.95 75.67 8.78L75.67 8.78L75.67 8.78Q75.74 8.18 76.17 7.69L76.17 7.69L76.17 7.69Q76.61 7.21 77.32 6.93L77.32 6.93L77.32 6.93Q78.02 6.65 78.90 6.65L78.90 6.65ZM78.67 12.45L78.67 12.45Q79.20 12.45 79.54 12.17L79.54 12.17L79.54 12.17Q79.88 11.90 79.88 11.45L79.88 11.45L79.88 11.14L79.88 11.14Q79.88 11.05 79.79 11.05L79.79 11.05L78.97 11.05L78.97 11.05Q78.44 11.05 78.16 11.23L78.16 11.23L78.16 11.23Q77.87 11.41 77.87 11.77L77.87 11.77L77.87 11.77Q77.87 12.08 78.08 12.26L78.08 12.26L78.08 12.26Q78.29 12.45 78.67 12.45L78.67 12.45ZM87.44 6.65L87.44 6.65Q88.54 6.65 89.23 7.34L89.23 7.34L89.23 7.34Q89.92 8.04 89.92 9.23L89.92 9.23L89.92 13.75L89.92 13.75Q89.92 13.86 89.85 13.93L89.85 13.93L89.85 13.93Q89.78 14 89.67 14L89.67 14L87.85 14L87.85 14Q87.74 14 87.67 13.93L87.67 13.93L87.67 13.93Q87.60 13.86 87.60 13.75L87.60 13.75L87.60 9.73L87.60 9.73Q87.60 9.24 87.34 8.94L87.34 8.94L87.34 8.94Q87.08 8.64 86.65 8.64L86.65 8.64L86.65 8.64Q86.21 8.64 85.95 8.94L85.95 8.94L85.95 8.94Q85.68 9.24 85.68 9.73L85.68 9.73L85.68 13.75L85.68 13.75Q85.68 13.86 85.61 13.93L85.61 13.93L85.61 13.93Q85.54 14 85.43 14L85.43 14L83.61 14L83.61 14Q83.50 14 83.43 13.93L83.43 13.93L83.43 13.93Q83.36 13.86 83.36 13.75L83.36 13.75L83.36 7.01L83.36 7.01Q83.36 6.90 83.43 6.83L83.43 6.83L83.43 6.83Q83.50 6.76 83.61 6.76L83.61 6.76L85.43 6.76L85.43 6.76Q85.54 6.76 85.61 6.83L85.61 6.83L85.61 6.83Q85.68 6.90 85.68 7.01L85.68 7.01L85.68 7.41L85.68 7.41Q85.68 7.48 85.72 7.49L85.72 7.49L85.72 7.49Q85.75 7.50 85.78 7.45L85.78 7.45L85.78 7.45Q86.35 6.65 87.44 6.65L87.44 6.65ZM95.40 4.45L95.40 4.45Q95.40 4.34 95.47 4.27L95.47 4.27L95.47 4.27Q95.54 4.20 95.65 4.20L95.65 4.20L97.47 4.20L97.47 4.20Q97.58 4.20 97.65 4.27L97.65 4.27L97.65 4.27Q97.72 4.34 97.72 4.45L97.72 4.45L97.72 13.75L97.72 13.75Q97.72 13.86 97.65 13.93L97.65 13.93L97.65 13.93Q97.58 14 97.47 14L97.47 14L95.65 14L95.65 14Q95.54 14 95.47 13.93L95.47 13.93L95.47 13.93Q95.40 13.86 95.40 13.75L95.40 13.75L95.40 13.41L95.40 13.41Q95.40 13.34 95.36 13.33L95.36 13.33L95.36 13.33Q95.33 13.31 95.28 13.37L95.28 13.37L95.28 13.37Q94.75 14.11 93.69 14.11L93.69 14.11L93.69 14.11Q92.78 14.11 92.01 13.51L92.01 13.51L92.01 13.51Q91.24 12.91 90.96 11.96L90.96 11.96L90.96 11.96Q90.73 11.27 90.73 10.35L90.73 10.35L90.73 10.35Q90.73 9.35 91.03 8.58L91.03 8.58L91.03 8.58Q91.35 7.71 92.07 7.17L92.07 7.17L92.07 7.17Q92.79 6.64 93.69 6.64L93.69 6.64L93.69 6.64Q94.75 6.64 95.28 7.28L95.28 7.28L95.28 7.28Q95.33 7.34 95.36 7.32L95.36 7.32L95.36 7.32Q95.40 7.31 95.40 7.24L95.40 7.24L95.40 4.45ZM95.14 11.54L95.14 11.54Q95.38 11.09 95.38 10.39L95.38 10.39L95.38 10.39Q95.38 9.62 95.13 9.16L95.13 9.16L95.13 9.16Q94.84 8.68 94.32 8.68L94.32 8.68L94.32 8.68Q93.77 8.68 93.48 9.17L93.48 9.17L93.48 9.17Q93.23 9.63 93.23 10.39L93.23 10.39L93.23 10.39Q93.23 11.10 93.46 11.55L93.46 11.55L93.46 11.55Q93.76 12.07 94.32 12.07L94.32 12.07L94.32 12.07Q94.85 12.07 95.14 11.54L95.14 11.54ZM104.76 6.65L104.76 6.65Q105.69 6.65 106.44 6.96L106.44 6.96L106.44 6.96Q107.20 7.28 107.63 7.83L107.63 7.83L107.63 7.83Q108.07 8.39 108.07 9.06L108.07 9.06L108.07 13.75L108.07 13.75Q108.07 13.86 108.00 13.93L108.00 13.93L108.00 13.93Q107.93 14 107.81 14L107.81 14L105.99 14L105.99 14Q105.88 14 105.81 13.93L105.81 13.93L105.81 13.93Q105.74 13.86 105.74 13.75L105.74 13.75L105.74 13.47L105.74 13.47Q105.74 13.40 105.71 13.38L105.71 13.38L105.71 13.38Q105.67 13.37 105.63 13.43L105.63 13.43L105.63 13.43Q105.07 14.11 103.82 14.11L103.82 14.11L103.82 14.11Q102.72 14.11 102.06 13.59L102.06 13.59L102.06 13.59Q101.40 13.06 101.40 12.04L101.40 12.04L101.40 12.04Q101.40 10.96 102.15 10.37L102.15 10.37L102.15 10.37Q102.90 9.79 104.31 9.79L104.31 9.79L105.64 9.79L105.64 9.79Q105.74 9.79 105.74 9.69L105.74 9.69L105.74 9.45L105.74 9.45Q105.74 9.07 105.50 8.86L105.50 8.86L105.50 8.86Q105.25 8.64 104.80 8.64L104.80 8.64L104.80 8.64Q104.48 8.64 104.25 8.74L104.25 8.74L104.25 8.74Q104.02 8.85 103.92 9.03L103.92 9.03L103.92 9.03Q103.85 9.13 103.79 9.18L103.79 9.18L103.79 9.18Q103.73 9.23 103.63 9.21L103.63 9.21L101.75 8.97L101.75 8.97Q101.50 8.95 101.53 8.78L101.53 8.78L101.53 8.78Q101.60 8.18 102.03 7.69L102.03 7.69L102.03 7.69Q102.47 7.21 103.17 6.93L103.17 6.93L103.17 6.93Q103.88 6.65 104.76 6.65L104.76 6.65ZM104.52 12.45L104.52 12.45Q105.06 12.45 105.40 12.17L105.40 12.17L105.40 12.17Q105.74 11.90 105.74 11.45L105.74 11.45L105.74 11.14L105.74 11.14Q105.74 11.05 105.64 11.05L105.64 11.05L104.83 11.05L104.83 11.05Q104.30 11.05 104.01 11.23L104.01 11.23L104.01 11.23Q103.73 11.41 103.73 11.77L103.73 11.77L103.73 11.77Q103.73 12.08 103.94 12.26L103.94 12.26L103.94 12.26Q104.15 12.45 104.52 12.45L104.52 12.45ZM116.02 8.81L116.02 8.81Q116.24 9.49 116.24 10.42L116.24 10.42L116.24 10.42Q116.24 11.41 115.95 12.18L115.95 12.18L115.95 12.18Q115.63 13.05 114.90 13.59L114.90 13.59L114.90 13.59Q114.18 14.13 113.29 14.13L113.29 14.13L113.29 14.13Q112.22 14.13 111.69 13.48L111.69 13.48L111.69 13.48Q111.65 13.43 111.61 13.44L111.61 13.44L111.61 13.44Q111.58 13.45 111.58 13.52L111.58 13.52L111.58 16.31L111.58 16.31Q111.58 16.42 111.51 16.49L111.51 16.49L111.51 16.49Q111.44 16.56 111.33 16.56L111.33 16.56L109.51 16.56L109.51 16.56Q109.40 16.56 109.33 16.49L109.33 16.49L109.33 16.49Q109.26 16.42 109.26 16.31L109.26 16.31L109.26 7.01L109.26 7.01Q109.26 6.90 109.33 6.83L109.33 6.83L109.33 6.83Q109.40 6.76 109.51 6.76L109.51 6.76L111.33 6.76L111.33 6.76Q111.44 6.76 111.51 6.83L111.51 6.83L111.51 6.83Q111.58 6.90 111.58 7.01L111.58 7.01L111.58 7.35L111.58 7.35Q111.58 7.42 111.61 7.43L111.61 7.43L111.61 7.43Q111.65 7.45 111.69 7.39L111.69 7.39L111.69 7.39Q112.22 6.65 113.29 6.65L113.29 6.65L113.29 6.65Q114.20 6.65 114.97 7.25L114.97 7.25L114.97 7.25Q115.74 7.85 116.02 8.81L116.02 8.81ZM113.50 11.59L113.50 11.59Q113.75 11.13 113.75 10.37L113.75 10.37L113.75 10.37Q113.75 9.66 113.51 9.21L113.51 9.21L113.51 9.21Q113.22 8.69 112.66 8.69L112.66 8.69L112.66 8.69Q112.13 8.69 111.83 9.23L111.83 9.23L111.83 9.23Q111.59 9.67 111.59 10.37L111.59 10.37L111.59 10.37Q111.59 11.14 111.85 11.61L111.85 11.61L111.85 11.61Q112.14 12.08 112.66 12.08L112.66 12.08L112.66 12.08Q113.20 12.08 113.50 11.59L113.50 11.59ZM123.90 8.81L123.90 8.81Q124.12 9.49 124.12 10.42L124.12 10.42L124.12 10.42Q124.12 11.41 123.83 12.18L123.83 12.18L123.83 12.18Q123.51 13.05 122.79 13.59L122.79 13.59L122.79 13.59Q122.07 14.13 121.17 14.13L121.17 14.13L121.17 14.13Q120.11 14.13 119.57 13.48L119.57 13.48L119.57 13.48Q119.53 13.43 119.50 13.44L119.50 13.44L119.50 13.44Q119.46 13.45 119.46 13.52L119.46 13.52L119.46 16.31L119.46 16.31Q119.46 16.42 119.39 16.49L119.39 16.49L119.39 16.49Q119.32 16.56 119.21 16.56L119.21 16.56L117.39 16.56L117.39 16.56Q117.28 16.56 117.21 16.49L117.21 16.49L117.21 16.49Q117.14 16.42 117.14 16.31L117.14 16.31L117.14 7.01L117.14 7.01Q117.14 6.90 117.21 6.83L117.21 6.83L117.21 6.83Q117.28 6.76 117.39 6.76L117.39 6.76L119.21 6.76L119.21 6.76Q119.32 6.76 119.39 6.83L119.39 6.83L119.39 6.83Q119.46 6.90 119.46 7.01L119.46 7.01L119.46 7.35L119.46 7.35Q119.46 7.42 119.50 7.43L119.50 7.43L119.50 7.43Q119.53 7.45 119.57 7.39L119.57 7.39L119.57 7.39Q120.11 6.65 121.17 6.65L121.17 6.65L121.17 6.65Q122.08 6.65 122.85 7.25L122.85 7.25L122.85 7.25Q123.62 7.85 123.90 8.81L123.90 8.81ZM121.38 11.59L121.38 11.59Q121.63 11.13 121.63 10.37L121.63 10.37L121.63 10.37Q121.63 9.66 121.39 9.21L121.39 9.21L121.39 9.21Q121.10 8.69 120.54 8.69L120.54 8.69L120.54 8.69Q120.01 8.69 119.71 9.23L119.71 9.23L119.71 9.23Q119.48 9.67 119.48 10.37L119.48 10.37L119.48 10.37Q119.48 11.14 119.73 11.61L119.73 11.61L119.73 11.61Q120.02 12.08 120.54 12.08L120.54 12.08L120.54 12.08Q121.09 12.08 121.38 11.59L121.38 11.59ZM125.26 14L125.26 14Q125.15 14 125.08 13.93L125.08 13.93L125.08 13.93Q125.01 13.86 125.01 13.75L125.01 13.75L125.01 4.45L125.01 4.45Q125.01 4.34 125.08 4.27L125.08 4.27L125.08 4.27Q125.15 4.20 125.26 4.20L125.26 4.20L127.08 4.20L127.08 4.20Q127.19 4.20 127.26 4.27L127.26 4.27L127.26 4.27Q127.33 4.34 127.33 4.45L127.33 4.45L127.33 13.75L127.33 13.75Q127.33 13.86 127.26 13.93L127.26 13.93L127.26 13.93Q127.19 14 127.08 14L127.08 14L125.26 14ZM129.82 6.29L129.82 6.29Q129.21 6.29 128.83 5.91L128.83 5.91L128.83 5.91Q128.45 5.54 128.45 4.94L128.45 4.94L128.45 4.94Q128.45 4.35 128.83 3.99L128.83 3.99L128.83 3.99Q129.21 3.63 129.82 3.63L129.82 3.63L129.82 3.63Q130.44 3.63 130.82 3.99L130.82 3.99L130.82 3.99Q131.19 4.35 131.19 4.94L131.19 4.94L131.19 4.94Q131.19 5.54 130.82 5.91L130.82 5.91L130.82 5.91Q130.44 6.29 129.82 6.29L129.82 6.29ZM128.91 14L128.91 14Q128.80 14 128.73 13.93L128.73 13.93L128.73 13.93Q128.66 13.86 128.66 13.75L128.66 13.75L128.66 7.01L128.66 7.01Q128.66 6.90 128.73 6.83L128.73 6.83L128.73 6.83Q128.80 6.76 128.91 6.76L128.91 6.76L130.73 6.76L130.73 6.76Q130.84 6.76 130.91 6.83L130.91 6.83L130.91 6.83Q130.98 6.90 130.98 7.01L130.98 7.01L130.98 13.75L130.98 13.75Q130.98 13.86 130.91 13.93L130.91 13.93L130.91 13.93Q130.84 14 130.73 14L130.73 14L128.91 14ZM135.59 14.11L135.59 14.11Q134.44 14.11 133.58 13.54L133.58 13.54L133.58 13.54Q132.72 12.96 132.36 11.96L132.36 11.96L132.36 11.96Q132.09 11.28 132.09 10.35L132.09 10.35L132.09 10.35Q132.09 9.41 132.36 8.74L132.36 8.74L132.36 8.74Q132.71 7.76 133.57 7.20L133.57 7.20L133.57 7.20Q134.44 6.65 135.59 6.65L135.59 6.65L135.59 6.65Q136.75 6.65 137.63 7.22L137.63 7.22L137.63 7.22Q138.52 7.80 138.82 8.68L138.82 8.68L138.82 8.68Q138.91 8.90 138.94 9.14L138.94 9.14L138.94 9.20L138.94 9.20Q138.94 9.38 138.71 9.42L138.71 9.42L136.93 9.69L136.86 9.70L136.86 9.70Q136.68 9.70 136.65 9.53L136.65 9.53L136.60 9.34L136.60 9.34Q136.51 9.03 136.23 8.83L136.23 8.83L136.23 8.83Q135.95 8.64 135.58 8.64L135.58 8.64L135.58 8.64Q134.83 8.64 134.60 9.30L134.60 9.30L134.60 9.30Q134.44 9.69 134.44 10.36L134.44 10.36L134.44 10.36Q134.44 10.96 134.58 11.41L134.58 11.41L134.58 11.41Q134.85 12.12 135.58 12.12L135.58 12.12L135.58 12.12Q135.94 12.12 136.20 11.94L136.20 11.94L136.20 11.94Q136.46 11.76 136.58 11.41L136.58 11.41L136.60 11.34L136.60 11.34L136.60 11.34Q136.61 11.27 136.70 11.19L136.70 11.19L136.70 11.19Q136.79 11.12 136.89 11.13L136.89 11.13L138.68 11.41L138.68 11.41Q138.94 11.45 138.89 11.69L138.89 11.69L138.89 11.69Q138.87 11.91 138.82 12.04L138.82 12.04L138.82 12.04Q138.49 13.02 137.61 13.57L137.61 13.57L137.61 13.57Q136.74 14.11 135.59 14.11L135.59 14.11ZM142.91 6.65L142.91 6.65Q143.84 6.65 144.59 6.96L144.59 6.96L144.59 6.96Q145.35 7.28 145.78 7.83L145.78 7.83L145.78 7.83Q146.22 8.39 146.22 9.06L146.22 9.06L146.22 13.75L146.22 13.75Q146.22 13.86 146.15 13.93L146.15 13.93L146.15 13.93Q146.08 14 145.96 14L145.96 14L144.14 14L144.14 14Q144.03 14 143.96 13.93L143.96 13.93L143.96 13.93Q143.89 13.86 143.89 13.75L143.89 13.75L143.89 13.47L143.89 13.47Q143.89 13.40 143.86 13.38L143.86 13.38L143.86 13.38Q143.82 13.37 143.78 13.43L143.78 13.43L143.78 13.43Q143.22 14.11 141.97 14.11L141.97 14.11L141.97 14.11Q140.87 14.11 140.21 13.59L140.21 13.59L140.21 13.59Q139.55 13.06 139.55 12.04L139.55 12.04L139.55 12.04Q139.55 10.96 140.30 10.37L140.30 10.37L140.30 10.37Q141.05 9.79 142.46 9.79L142.46 9.79L143.79 9.79L143.79 9.79Q143.89 9.79 143.89 9.69L143.89 9.69L143.89 9.45L143.89 9.45Q143.89 9.07 143.65 8.86L143.65 8.86L143.65 8.86Q143.40 8.64 142.95 8.64L142.95 8.64L142.95 8.64Q142.63 8.64 142.40 8.74L142.40 8.74L142.40 8.74Q142.17 8.85 142.07 9.03L142.07 9.03L142.07 9.03Q142.00 9.13 141.94 9.18L141.94 9.18L141.94 9.18Q141.88 9.23 141.78 9.21L141.78 9.21L139.90 8.97L139.90 8.97Q139.65 8.95 139.68 8.78L139.68 8.78L139.68 8.78Q139.75 8.18 140.18 7.69L140.18 7.69L140.18 7.69Q140.62 7.21 141.32 6.93L141.32 6.93L141.32 6.93Q142.03 6.65 142.91 6.65L142.91 6.65ZM142.67 12.45L142.67 12.45Q143.21 12.45 143.55 12.17L143.55 12.17L143.55 12.17Q143.89 11.90 143.89 11.45L143.89 11.45L143.89 11.14L143.89 11.14Q143.89 11.05 143.79 11.05L143.79 11.05L142.98 11.05L142.98 11.05Q142.45 11.05 142.16 11.23L142.16 11.23L142.16 11.23Q141.88 11.41 141.88 11.77L141.88 11.77L141.88 11.77Q141.88 12.08 142.09 12.26L142.09 12.26L142.09 12.26Q142.30 12.45 142.67 12.45L142.67 12.45ZM151.83 8.37L151.83 8.37Q151.83 8.48 151.76 8.55L151.76 8.55L151.76 8.55Q151.69 8.62 151.58 8.62L151.58 8.62L150.42 8.62L150.42 8.62Q150.32 8.62 150.32 8.72L150.32 8.72L150.32 11.17L150.32 11.17Q150.32 11.97 150.96 11.97L150.96 11.97L151.40 11.97L151.40 11.97Q151.51 11.97 151.58 12.04L151.58 12.04L151.58 12.04Q151.65 12.11 151.65 12.22L151.65 12.22L151.65 13.69L151.65 13.69Q151.65 13.92 151.41 13.94L151.41 13.94L151.41 13.94Q150.77 13.97 150.50 13.97L150.50 13.97L150.50 13.97Q149.28 13.97 148.69 13.58L148.69 13.58L148.69 13.58Q148.11 13.19 148.09 12.12L148.09 12.12L148.09 8.72L148.09 8.72Q148.09 8.62 147.99 8.62L147.99 8.62L147.31 8.62L147.31 8.62Q147.20 8.62 147.13 8.55L147.13 8.55L147.13 8.55Q147.06 8.48 147.06 8.37L147.06 8.37L147.06 7.01L147.06 7.01Q147.06 6.90 147.13 6.83L147.13 6.83L147.13 6.83Q147.20 6.76 147.31 6.76L147.31 6.76L147.99 6.76L147.99 6.76Q148.09 6.76 148.09 6.66L148.09 6.66L148.09 5.08L148.09 5.08Q148.09 4.97 148.16 4.90L148.16 4.90L148.16 4.90Q148.23 4.83 148.34 4.83L148.34 4.83L150.07 4.83L150.07 4.83Q150.18 4.83 150.25 4.90L150.25 4.90L150.25 4.90Q150.32 4.97 150.32 5.08L150.32 5.08L150.32 6.66L150.32 6.66Q150.32 6.76 150.42 6.76L150.42 6.76L151.58 6.76L151.58 6.76Q151.69 6.76 151.76 6.83L151.76 6.83L151.76 6.83Q151.83 6.90 151.83 7.01L151.83 7.01L151.83 8.37ZM154.04 6.29L154.04 6.29Q153.43 6.29 153.05 5.91L153.05 5.91L153.05 5.91Q152.67 5.54 152.67 4.94L152.67 4.94L152.67 4.94Q152.67 4.35 153.05 3.99L153.05 3.99L153.05 3.99Q153.43 3.63 154.04 3.63L154.04 3.63L154.04 3.63Q154.66 3.63 155.04 3.99L155.04 3.99L155.04 3.99Q155.41 4.35 155.41 4.94L155.41 4.94L155.41 4.94Q155.41 5.54 155.04 5.91L155.04 5.91L155.04 5.91Q154.66 6.29 154.04 6.29L154.04 6.29ZM153.13 14L153.13 14Q153.02 14 152.95 13.93L152.95 13.93L152.95 13.93Q152.88 13.86 152.88 13.75L152.88 13.75L152.88 7.01L152.88 7.01Q152.88 6.90 152.95 6.83L152.95 6.83L152.95 6.83Q153.02 6.76 153.13 6.76L153.13 6.76L154.95 6.76L154.95 6.76Q155.06 6.76 155.13 6.83L155.13 6.83L155.13 6.83Q155.20 6.90 155.20 7.01L155.20 7.01L155.20 13.75L155.20 13.75Q155.20 13.86 155.13 13.93L155.13 13.93L155.13 13.93Q155.06 14 154.95 14L154.95 14L153.13 14ZM159.80 14.11L159.80 14.11Q158.54 14.11 157.66 13.44L157.66 13.44L157.66 13.44Q156.79 12.77 156.48 11.62L156.48 11.62L156.48 11.62Q156.31 11.05 156.31 10.36L156.31 10.36L156.31 10.36Q156.31 9.66 156.49 9.00L156.49 9.00L156.49 9.00Q156.81 7.90 157.69 7.27L157.69 7.27L157.69 7.27Q158.56 6.65 159.81 6.65L159.81 6.65L159.81 6.65Q161.04 6.65 161.90 7.27L161.90 7.27L161.90 7.27Q162.75 7.90 163.09 8.99L163.09 8.99L163.09 8.99Q163.28 9.62 163.28 10.33L163.28 10.33L163.28 10.33Q163.28 10.98 163.13 11.56L163.13 11.56L163.13 11.56Q162.83 12.74 161.95 13.43L161.95 13.43L161.95 13.43Q161.07 14.11 159.80 14.11L159.80 14.11ZM159.80 12.12L159.80 12.12Q160.20 12.12 160.48 11.87L160.48 11.87L160.48 11.87Q160.75 11.61 160.86 11.16L160.86 11.16L160.86 11.16Q160.94 10.79 160.94 10.36L160.94 10.36L160.94 10.36Q160.94 9.94 160.85 9.55L160.85 9.55L160.85 9.55Q160.73 9.11 160.47 8.88L160.47 8.88L160.47 8.88Q160.20 8.64 159.80 8.64L159.80 8.64L159.80 8.64Q159.38 8.64 159.12 8.88L159.12 8.88L159.12 8.88Q158.86 9.11 158.75 9.55L158.75 9.55L158.75 9.55Q158.65 9.86 158.65 10.36L158.65 10.36L158.65 10.36Q158.65 10.79 158.73 11.16L158.73 11.16L158.73 11.16Q158.86 11.61 159.12 11.87L159.12 11.87L159.12 11.87Q159.39 12.12 159.80 12.12L159.80 12.12ZM168.38 6.65L168.38 6.65Q169.47 6.65 170.16 7.34L170.16 7.34L170.16 7.34Q170.86 8.04 170.86 9.23L170.86 9.23L170.86 13.75L170.86 13.75Q170.86 13.86 170.79 13.93L170.79 13.93L170.79 13.93Q170.72 14 170.60 14L170.60 14L168.78 14L168.78 14Q168.67 14 168.60 13.93L168.60 13.93L168.60 13.93Q168.53 13.86 168.53 13.75L168.53 13.75L168.53 9.73L168.53 9.73Q168.53 9.24 168.27 8.94L168.27 8.94L168.27 8.94Q168.01 8.64 167.58 8.64L167.58 8.64L167.58 8.64Q167.15 8.64 166.88 8.94L166.88 8.94L166.88 8.94Q166.61 9.24 166.61 9.73L166.61 9.73L166.61 13.75L166.61 13.75Q166.61 13.86 166.54 13.93L166.54 13.93L166.54 13.93Q166.47 14 166.36 14L166.36 14L164.54 14L164.54 14Q164.43 14 164.36 13.93L164.36 13.93L164.36 13.93Q164.29 13.86 164.29 13.75L164.29 13.75L164.29 7.01L164.29 7.01Q164.29 6.90 164.36 6.83L164.36 6.83L164.36 6.83Q164.43 6.76 164.54 6.76L164.54 6.76L166.36 6.76L166.36 6.76Q166.47 6.76 166.54 6.83L166.54 6.83L166.54 6.83Q166.61 6.90 166.61 7.01L166.61 7.01L166.61 7.41L166.61 7.41Q166.61 7.48 166.65 7.49L166.65 7.49L166.65 7.49Q166.68 7.50 166.71 7.45L166.71 7.45L166.71 7.45Q167.29 6.65 168.38 6.65L168.38 6.65ZM175.07 14.11L175.07 14.11Q174.08 14.11 173.34 13.84L173.34 13.84L173.34 13.84Q172.61 13.57 172.21 13.07L172.21 13.07L172.21 13.07Q171.81 12.57 171.81 11.93L171.81 11.93L171.81 11.86L171.81 11.86Q171.81 11.75 171.88 11.68L171.88 11.68L171.88 11.68Q171.95 11.61 172.06 11.61L172.06 11.61L173.78 11.61L173.78 11.61Q174.03 11.61 174.03 11.69L174.03 11.69L174.03 11.77L174.03 11.77Q174.03 12.04 174.32 12.21L174.32 12.21L174.32 12.21Q174.61 12.39 175.06 12.39L175.06 12.39L175.06 12.39Q175.45 12.39 175.69 12.26L175.69 12.26L175.69 12.26Q175.92 12.12 175.92 11.90L175.92 11.90L175.92 11.90Q175.92 11.68 175.67 11.57L175.67 11.57L175.67 11.57Q175.42 11.47 174.87 11.37L174.87 11.37L174.87 11.37Q173.99 11.20 173.45 10.96L173.45 10.96L173.45 10.96Q172.75 10.67 172.32 10.22L172.32 10.22L172.32 10.22Q171.89 9.77 171.89 9.02L171.89 9.02L171.89 9.02Q171.89 7.92 172.74 7.29L172.74 7.29L172.74 7.29Q173.59 6.65 174.97 6.65L174.97 6.65L174.97 6.65Q175.91 6.65 176.62 6.95L176.62 6.95L176.62 6.95Q177.32 7.25 177.72 7.80L177.72 7.80L177.72 7.80Q178.11 8.34 178.11 9.06L178.11 9.06L178.11 9.06Q178.11 9.13 178.04 9.18L178.04 9.18L178.04 9.18Q177.97 9.23 177.86 9.23L177.86 9.23L176.19 9.23L176.19 9.23Q175.94 9.23 175.94 9.14L175.94 9.14L175.94 9.06L175.94 9.06Q175.94 8.79 175.69 8.62L175.69 8.62L175.69 8.62Q175.43 8.46 175.00 8.46L175.00 8.46L175.00 8.46Q174.61 8.46 174.36 8.59L174.36 8.59L174.36 8.59Q174.12 8.72 174.12 8.96L174.12 8.96L174.12 8.96Q174.12 9.20 174.38 9.30L174.38 9.30L174.38 9.30Q174.65 9.41 175.28 9.53L175.28 9.53L175.28 9.53Q176.13 9.70 176.43 9.80L176.43 9.80L176.43 9.80Q177.28 10.08 177.77 10.56L177.77 10.56L177.77 10.56Q178.25 11.03 178.25 11.83L178.25 11.83L178.25 11.83Q178.25 12.92 177.39 13.52L177.39 13.52L177.39 13.52Q176.53 14.11 175.07 14.11L175.07 14.11Z"></path></g></svg>