<svg data-v-423bf9ae="" xmlns="http://www.w3.org/2000/svg" viewBox="0 0 507 90" class="iconLeft"><!----><!----><!----><g data-v-423bf9ae="" id="8b82345e-764f-4291-be7f-d8d343ae7807" fill="white" transform="matrix(4.55927038192749,0,0,4.55927038192749,137.94833374023438,-1.5501551628112793)"><path d="M4.19 14.11L4.19 14.11Q3.07 14.11 2.22 13.74L2.22 13.74L2.22 13.74Q1.37 13.37 0.91 12.68L0.91 12.68L0.91 12.68Q0.45 11.98 0.45 11.07L0.45 11.07L0.45 10.89L0.45 10.89Q0.45 10.78 0.52 10.71L0.52 10.71L0.52 10.71Q0.59 10.64 0.70 10.64L0.70 10.64L2.48 10.64L2.48 10.64Q2.59 10.64 2.66 10.69L2.66 10.69L2.66 10.69Q2.73 10.74 2.73 10.81L2.73 10.81L2.73 10.98L2.73 10.98Q2.73 11.42 3.19 11.77L3.19 11.77L3.19 11.77Q3.64 12.12 4.35 12.12L4.35 12.12L4.35 12.12Q4.97 12.12 5.26 11.86L5.26 11.86L5.26 11.86Q5.56 11.59 5.56 11.24L5.56 11.24L5.56 11.24Q5.56 10.85 5.21 10.64L5.21 10.64L5.21 10.64Q4.87 10.43 3.99 10.15L3.99 10.15L3.68 10.05L3.68 10.05Q2.79 9.76 2.11 9.41L2.11 9.41L2.11 9.41Q1.44 9.07 0.97 8.46L0.97 8.46L0.97 8.46Q0.49 7.85 0.49 6.96L0.49 6.96L0.49 6.96Q0.49 6.09 0.95 5.44L0.95 5.44L0.95 5.44Q1.40 4.79 2.21 4.44L2.21 4.44L2.21 4.44Q3.01 4.09 4.03 4.09L4.03 4.09L4.03 4.09Q5.11 4.09 5.97 4.48L5.97 4.48L5.97 4.48Q6.83 4.87 7.32 5.59L7.32 5.59L7.32 5.59Q7.81 6.30 7.81 7.22L7.81 7.22L7.81 7.34L7.81 7.34Q7.81 7.45 7.74 7.52L7.74 7.52L7.74 7.52Q7.67 7.59 7.56 7.59L7.56 7.59L5.78 7.59L5.78 7.59Q5.67 7.59 5.60 7.55L5.60 7.55L5.60 7.55Q5.53 7.52 5.53 7.45L5.53 7.45L5.53 7.32L5.53 7.32Q5.53 6.83 5.10 6.45L5.10 6.45L5.10 6.45Q4.66 6.08 3.93 6.08L3.93 6.08L3.93 6.08Q3.39 6.08 3.08 6.30L3.08 6.30L3.08 6.30Q2.77 6.52 2.77 6.93L2.77 6.93L2.77 6.93Q2.77 7.24 2.97 7.44L2.97 7.44L2.97 7.44Q3.16 7.64 3.58 7.82L3.58 7.82L3.58 7.82Q3.99 7.99 4.84 8.27L4.84 8.27L4.84 8.27Q5.82 8.61 6.37 8.86L6.37 8.86L6.37 8.86Q6.92 9.11 7.40 9.68L7.40 9.68L7.40 9.68Q7.88 10.25 7.88 11.17L7.88 11.17L7.88 11.17Q7.88 12.05 7.42 12.72L7.42 12.72L7.42 12.72Q6.96 13.38 6.12 13.75L6.12 13.75L6.12 13.75Q5.28 14.11 4.19 14.11L4.19 14.11ZM10.19 6.29L10.19 6.29Q9.58 6.29 9.20 5.91L9.20 5.91L9.20 5.91Q8.82 5.54 8.82 4.94L8.82 4.94L8.82 4.94Q8.82 4.35 9.20 3.99L9.20 3.99L9.20 3.99Q9.58 3.63 10.19 3.63L10.19 3.63L10.19 3.63Q10.81 3.63 11.19 3.99L11.19 3.99L11.19 3.99Q11.56 4.35 11.56 4.94L11.56 4.94L11.56 4.94Q11.56 5.54 11.19 5.91L11.19 5.91L11.19 5.91Q10.81 6.29 10.19 6.29L10.19 6.29ZM9.28 14L9.28 14Q9.17 14 9.10 13.93L9.10 13.93L9.10 13.93Q9.03 13.86 9.03 13.75L9.03 13.75L9.03 7.01L9.03 7.01Q9.03 6.90 9.10 6.83L9.10 6.83L9.10 6.83Q9.17 6.76 9.28 6.76L9.28 6.76L11.10 6.76L11.10 6.76Q11.21 6.76 11.28 6.83L11.28 6.83L11.28 6.83Q11.35 6.90 11.35 7.01L11.35 7.01L11.35 13.75L11.35 13.75Q11.35 13.86 11.28 13.93L11.28 13.93L11.28 13.93Q11.21 14 11.10 14L11.10 14L9.28 14ZM17.09 8.37L17.09 8.37Q17.09 8.48 17.02 8.55L17.02 8.55L17.02 8.55Q16.95 8.62 16.84 8.62L16.84 8.62L15.68 8.62L15.68 8.62Q15.58 8.62 15.58 8.72L15.58 8.72L15.58 11.17L15.58 11.17Q15.58 11.97 16.23 11.97L16.23 11.97L16.66 11.97L16.66 11.97Q16.77 11.97 16.84 12.04L16.84 12.04L16.84 12.04Q16.91 12.11 16.91 12.22L16.91 12.22L16.91 13.69L16.91 13.69Q16.91 13.92 16.67 13.94L16.67 13.94L16.67 13.94Q16.03 13.97 15.76 13.97L15.76 13.97L15.76 13.97Q14.55 13.97 13.96 13.58L13.96 13.58L13.96 13.58Q13.37 13.19 13.36 12.12L13.36 12.12L13.36 8.72L13.36 8.72Q13.36 8.62 13.26 8.62L13.26 8.62L12.57 8.62L12.57 8.62Q12.46 8.62 12.39 8.55L12.39 8.55L12.39 8.55Q12.32 8.48 12.32 8.37L12.32 8.37L12.32 7.01L12.32 7.01Q12.32 6.90 12.39 6.83L12.39 6.83L12.39 6.83Q12.46 6.76 12.57 6.76L12.57 6.76L13.26 6.76L13.26 6.76Q13.36 6.76 13.36 6.66L13.36 6.66L13.36 5.08L13.36 5.08Q13.36 4.97 13.43 4.90L13.43 4.90L13.43 4.90Q13.50 4.83 13.61 4.83L13.61 4.83L15.33 4.83L15.33 4.83Q15.44 4.83 15.51 4.90L15.51 4.90L15.51 4.90Q15.58 4.97 15.58 5.08L15.58 5.08L15.58 6.66L15.58 6.66Q15.58 6.76 15.68 6.76L15.68 6.76L16.84 6.76L16.84 6.76Q16.95 6.76 17.02 6.83L17.02 6.83L17.02 6.83Q17.09 6.90 17.09 7.01L17.09 7.01L17.09 8.37ZM21.67 12.14L21.67 12.14Q22.11 12.14 22.48 12.00L22.48 12.00L22.48 12.00Q22.85 11.87 23.10 11.65L23.10 11.65L23.10 11.65Q23.18 11.55 23.28 11.55L23.28 11.55L23.28 11.55Q23.37 11.55 23.45 11.65L23.45 11.65L24.32 12.68L24.32 12.68Q24.40 12.78 24.40 12.87L24.40 12.87L24.40 12.87Q24.40 12.96 24.32 13.05L24.32 13.05L24.32 13.05Q23.84 13.55 23.11 13.83L23.11 13.83L23.11 13.83Q22.39 14.11 21.56 14.11L21.56 14.11L21.56 14.11Q20.61 14.11 19.87 13.77L19.87 13.77L19.87 13.77Q19.14 13.43 18.66 12.81L18.66 12.81L18.66 12.81Q17.89 11.83 17.89 10.32L17.89 10.32L17.89 10.32Q17.89 9.65 18.05 9.06L18.05 9.06L18.05 9.06Q18.35 7.97 19.25 7.30L19.25 7.30L19.25 7.30Q20.15 6.64 21.35 6.64L21.35 6.64L21.35 6.64Q22.75 6.64 23.61 7.50L23.61 7.50L23.61 7.50Q24.47 8.37 24.74 9.93L24.74 9.93L24.74 9.93Q24.79 10.32 24.82 10.78L24.82 10.78L24.82 10.78Q24.82 11.03 24.57 11.03L24.57 11.03L20.34 11.03L20.34 11.03Q20.30 11.03 20.27 11.06L20.27 11.06L20.27 11.06Q20.23 11.09 20.24 11.14L20.24 11.14L20.33 11.42L20.33 11.42Q20.47 11.76 20.82 11.95L20.82 11.95L20.82 11.95Q21.17 12.14 21.67 12.14L21.67 12.14ZM21.31 8.64L21.31 8.64Q20.59 8.64 20.34 9.32L20.34 9.32L20.34 9.32Q20.29 9.46 20.27 9.53L20.27 9.53L20.27 9.56L20.27 9.56Q20.27 9.65 20.37 9.65L20.37 9.65L22.29 9.65L22.29 9.65Q22.34 9.65 22.36 9.61L22.36 9.61L22.36 9.61Q22.39 9.58 22.37 9.53L22.37 9.53L22.32 9.35L22.32 9.35Q22.20 9.02 21.95 8.83L21.95 8.83L21.95 8.83Q21.70 8.64 21.31 8.64L21.31 8.64ZM28.84 14.11L28.84 14.11Q27.85 14.11 27.11 13.84L27.11 13.84L27.11 13.84Q26.38 13.57 25.98 13.07L25.98 13.07L25.98 13.07Q25.58 12.57 25.58 11.93L25.58 11.93L25.58 11.86L25.58 11.86Q25.58 11.75 25.65 11.68L25.65 11.68L25.65 11.68Q25.72 11.61 25.83 11.61L25.83 11.61L27.55 11.61L27.55 11.61Q27.80 11.61 27.80 11.69L27.80 11.69L27.80 11.77L27.80 11.77Q27.80 12.04 28.09 12.21L28.09 12.21L28.09 12.21Q28.38 12.39 28.83 12.39L28.83 12.39L28.83 12.39Q29.22 12.39 29.46 12.26L29.46 12.26L29.46 12.26Q29.69 12.12 29.69 11.90L29.69 11.90L29.69 11.90Q29.69 11.68 29.44 11.57L29.44 11.57L29.44 11.57Q29.19 11.47 28.64 11.37L28.64 11.37L28.64 11.37Q27.76 11.20 27.22 10.96L27.22 10.96L27.22 10.96Q26.52 10.67 26.09 10.22L26.09 10.22L26.09 10.22Q25.66 9.77 25.66 9.02L25.66 9.02L25.66 9.02Q25.66 7.92 26.51 7.29L26.51 7.29L26.51 7.29Q27.36 6.65 28.74 6.65L28.74 6.65L28.74 6.65Q29.68 6.65 30.39 6.95L30.39 6.95L30.39 6.95Q31.09 7.25 31.49 7.80L31.49 7.80L31.49 7.80Q31.88 8.34 31.88 9.06L31.88 9.06L31.88 9.06Q31.88 9.13 31.81 9.18L31.81 9.18L31.81 9.18Q31.74 9.23 31.63 9.23L31.63 9.23L29.96 9.23L29.96 9.23Q29.71 9.23 29.71 9.14L29.71 9.14L29.71 9.06L29.71 9.06Q29.71 8.79 29.46 8.62L29.46 8.62L29.46 8.62Q29.20 8.46 28.77 8.46L28.77 8.46L28.77 8.46Q28.38 8.46 28.13 8.59L28.13 8.59L28.13 8.59Q27.89 8.72 27.89 8.96L27.89 8.96L27.89 8.96Q27.89 9.20 28.15 9.30L28.15 9.30L28.15 9.30Q28.42 9.41 29.05 9.53L29.05 9.53L29.05 9.53Q29.90 9.70 30.20 9.80L30.20 9.80L30.20 9.80Q31.05 10.08 31.53 10.56L31.53 10.56L31.53 10.56Q32.02 11.03 32.02 11.83L32.02 11.83L32.02 11.83Q32.02 12.92 31.16 13.52L31.16 13.52L31.16 13.52Q30.30 14.11 28.84 14.11L28.84 14.11ZM42.43 8.58L42.43 8.58Q42.73 9.35 42.73 10.35L42.73 10.35L42.73 10.35Q42.73 11.27 42.50 11.96L42.50 11.96L42.50 11.96Q42.22 12.91 41.45 13.51L41.45 13.51L41.45 13.51Q40.68 14.11 39.77 14.11L39.77 14.11L39.77 14.11Q38.71 14.11 38.18 13.37L38.18 13.37L38.18 13.37Q38.14 13.31 38.10 13.33L38.10 13.33L38.10 13.33Q38.07 13.34 38.07 13.41L38.07 13.41L38.07 13.75L38.07 13.75Q38.07 13.86 38.00 13.93L38.00 13.93L38.00 13.93Q37.93 14 37.81 14L37.81 14L35.99 14L35.99 14Q35.88 14 35.81 13.93L35.81 13.93L35.81 13.93Q35.74 13.86 35.74 13.75L35.74 13.75L35.74 4.45L35.74 4.45Q35.74 4.34 35.81 4.27L35.81 4.27L35.81 4.27Q35.88 4.20 35.99 4.20L35.99 4.20L37.81 4.20L37.81 4.20Q37.93 4.20 38.00 4.27L38.00 4.27L38.00 4.27Q38.07 4.34 38.07 4.45L38.07 4.45L38.07 7.24L38.07 7.24Q38.07 7.31 38.10 7.32L38.10 7.32L38.10 7.32Q38.14 7.34 38.18 7.28L38.18 7.28L38.18 7.28Q38.71 6.64 39.77 6.64L39.77 6.64L39.77 6.64Q40.67 6.64 41.39 7.17L41.39 7.17L41.39 7.17Q42.11 7.71 42.43 8.58L42.43 8.58ZM40.00 11.55L40.00 11.55Q40.24 11.10 40.24 10.39L40.24 10.39L40.24 10.39Q40.24 9.63 39.98 9.17L39.98 9.17L39.98 9.17Q39.69 8.68 39.14 8.68L39.14 8.68L39.14 8.68Q38.63 8.68 38.33 9.16L38.33 9.16L38.33 9.16Q38.08 9.62 38.08 10.39L38.08 10.39L38.08 10.39Q38.08 11.09 38.32 11.54L38.32 11.54L38.32 11.54Q38.61 12.07 39.14 12.07L39.14 12.07L39.14 12.07Q39.70 12.07 40.00 11.55L40.00 11.55ZM43.65 16.79L43.65 16.79Q43.61 16.79 43.58 16.72L43.58 16.72L43.58 16.72Q43.55 16.65 43.55 16.53L43.55 16.53L43.55 15.13L43.55 15.13Q43.55 15.02 43.58 14.95L43.58 14.95L43.58 14.95Q43.61 14.88 43.64 14.88L43.64 14.88L43.71 14.88L43.71 14.88Q44.60 14.88 44.98 14.73L44.98 14.73L44.98 14.73Q45.36 14.57 45.46 14.07L45.46 14.07L45.46 14.07Q45.47 14.01 45.46 13.94L45.46 13.94L43.25 7.04L43.25 7.04Q43.23 7 43.23 6.94L43.23 6.94L43.23 6.94Q43.23 6.76 43.44 6.76L43.44 6.76L45.40 6.76L45.40 6.76Q45.51 6.76 45.59 6.83L45.59 6.83L45.59 6.83Q45.67 6.89 45.68 6.99L45.68 6.99L46.59 10.64L46.59 10.64Q46.62 10.70 46.65 10.70L46.65 10.70L46.65 10.70Q46.69 10.70 46.70 10.64L46.70 10.64L47.59 6.99L47.59 6.99Q47.60 6.89 47.68 6.83L47.68 6.83L47.68 6.83Q47.75 6.76 47.87 6.76L47.87 6.76L49.81 6.76L49.81 6.76Q49.95 6.76 50.01 6.84L50.01 6.84L50.01 6.84Q50.06 6.92 50.02 7.04L50.02 7.04L47.70 14.14L47.70 14.14Q47.35 15.19 46.96 15.73L46.96 15.73L46.96 15.73Q46.58 16.27 45.84 16.53L45.84 16.53L45.84 16.53Q45.11 16.79 43.75 16.79L43.75 16.79L43.65 16.79ZM54.03 14L54.03 14Q53.91 14 53.84 13.93L53.84 13.93L53.84 13.93Q53.77 13.86 53.77 13.75L53.77 13.75L53.77 4.45L53.77 4.45Q53.77 4.34 53.84 4.27L53.84 4.27L53.84 4.27Q53.91 4.20 54.03 4.20L54.03 4.20L55.75 4.20L55.75 4.20Q55.94 4.20 56.04 4.37L56.04 4.37L59.12 9.58L59.12 9.58Q59.15 9.63 59.19 9.62L59.19 9.62L59.19 9.62Q59.23 9.60 59.23 9.53L59.23 9.53L59.22 4.45L59.22 4.45Q59.22 4.34 59.29 4.27L59.29 4.27L59.29 4.27Q59.36 4.20 59.47 4.20L59.47 4.20L61.26 4.20L61.26 4.20Q61.38 4.20 61.45 4.27L61.45 4.27L61.45 4.27Q61.52 4.34 61.52 4.45L61.52 4.45L61.52 13.75L61.52 13.75Q61.52 13.86 61.45 13.93L61.45 13.93L61.45 13.93Q61.38 14 61.26 14L61.26 14L59.54 14L59.54 14Q59.36 14 59.25 13.83L59.25 13.83L56.17 8.55L56.17 8.55Q56.14 8.48 56.09 8.50L56.09 8.50L56.09 8.50Q56.04 8.51 56.04 8.58L56.04 8.58L56.07 13.75L56.07 13.75Q56.07 13.86 56.00 13.93L56.00 13.93L56.00 13.93Q55.93 14 55.82 14L55.82 14L54.03 14ZM64.08 6.29L64.08 6.29Q63.46 6.29 63.08 5.91L63.08 5.91L63.08 5.91Q62.71 5.54 62.71 4.94L62.71 4.94L62.71 4.94Q62.71 4.35 63.08 3.99L63.08 3.99L63.08 3.99Q63.46 3.63 64.08 3.63L64.08 3.63L64.08 3.63Q64.69 3.63 65.07 3.99L65.07 3.99L65.07 3.99Q65.45 4.35 65.45 4.94L65.45 4.94L65.45 4.94Q65.45 5.54 65.07 5.91L65.07 5.91L65.07 5.91Q64.69 6.29 64.08 6.29L64.08 6.29ZM63.17 14L63.17 14Q63.06 14 62.99 13.93L62.99 13.93L62.99 13.93Q62.92 13.86 62.92 13.75L62.92 13.75L62.92 7.01L62.92 7.01Q62.92 6.90 62.99 6.83L62.99 6.83L62.99 6.83Q63.06 6.76 63.17 6.76L63.17 6.76L64.99 6.76L64.99 6.76Q65.10 6.76 65.17 6.83L65.17 6.83L65.17 6.83Q65.24 6.90 65.24 7.01L65.24 7.01L65.24 13.75L65.24 13.75Q65.24 13.86 65.17 13.93L65.17 13.93L65.17 13.93Q65.10 14 64.99 14L64.99 14L63.17 14ZM69.85 14.11L69.85 14.11Q68.70 14.11 67.84 13.54L67.84 13.54L67.84 13.54Q66.98 12.96 66.61 11.96L66.61 11.96L66.61 11.96Q66.35 11.28 66.35 10.35L66.35 10.35L66.35 10.35Q66.35 9.41 66.61 8.74L66.61 8.74L66.61 8.74Q66.96 7.76 67.83 7.20L67.83 7.20L67.83 7.20Q68.70 6.65 69.85 6.65L69.85 6.65L69.85 6.65Q71.01 6.65 71.89 7.22L71.89 7.22L71.89 7.22Q72.77 7.80 73.08 8.68L73.08 8.68L73.08 8.68Q73.16 8.90 73.19 9.14L73.19 9.14L73.19 9.20L73.19 9.20Q73.19 9.38 72.97 9.42L72.97 9.42L71.19 9.69L71.12 9.70L71.12 9.70Q70.94 9.70 70.91 9.53L70.91 9.53L70.85 9.34L70.85 9.34Q70.77 9.03 70.49 8.83L70.49 8.83L70.49 8.83Q70.21 8.64 69.83 8.64L69.83 8.64L69.83 8.64Q69.09 8.64 68.85 9.30L68.85 9.30L68.85 9.30Q68.70 9.69 68.70 10.36L68.70 10.36L68.70 10.36Q68.70 10.96 68.84 11.41L68.84 11.41L68.84 11.41Q69.10 12.12 69.83 12.12L69.83 12.12L69.83 12.12Q70.20 12.12 70.45 11.94L70.45 11.94L70.45 11.94Q70.71 11.76 70.84 11.41L70.84 11.41L70.85 11.34L70.85 11.34L70.85 11.34Q70.87 11.27 70.96 11.19L70.96 11.19L70.96 11.19Q71.05 11.12 71.15 11.13L71.15 11.13L72.94 11.41L72.94 11.41Q73.19 11.45 73.15 11.69L73.15 11.69L73.15 11.69Q73.12 11.91 73.08 12.04L73.08 12.04L73.08 12.04Q72.74 13.02 71.87 13.57L71.87 13.57L71.87 13.57Q70.99 14.11 69.85 14.11L69.85 14.11ZM74.38 14L74.38 14Q74.27 14 74.20 13.93L74.20 13.93L74.20 13.93Q74.13 13.86 74.13 13.75L74.13 13.75L74.13 4.45L74.13 4.45Q74.13 4.34 74.20 4.27L74.20 4.27L74.20 4.27Q74.27 4.20 74.38 4.20L74.38 4.20L76.20 4.20L76.20 4.20Q76.31 4.20 76.38 4.27L76.38 4.27L76.38 4.27Q76.45 4.34 76.45 4.45L76.45 4.45L76.45 8.67L76.45 8.67Q76.45 8.74 76.50 8.75L76.50 8.75L76.50 8.75Q76.54 8.76 76.58 8.71L76.58 8.71L78.04 6.92L78.04 6.92Q78.15 6.76 78.34 6.76L78.34 6.76L80.42 6.76L80.42 6.76Q80.63 6.76 80.63 6.92L80.63 6.92L80.63 6.92Q80.63 7 80.57 7.07L80.57 7.07L78.83 9.31L78.83 9.31Q78.78 9.39 78.82 9.45L78.82 9.45L80.86 13.71L80.89 13.82L80.89 13.82Q80.89 14 80.67 14L80.67 14L78.78 14L78.78 14Q78.57 14 78.48 13.80L78.48 13.80L77.25 10.92L77.25 10.92Q77.24 10.86 77.19 10.86L77.19 10.86L77.19 10.86Q77.14 10.86 77.11 10.91L77.11 10.91L76.50 11.80L76.50 11.80Q76.45 11.84 76.45 11.93L76.45 11.93L76.45 13.75L76.45 13.75Q76.45 13.86 76.38 13.93L76.38 13.93L76.38 13.93Q76.31 14 76.20 14L76.20 14L74.38 14Z"></path></g><!----><g data-v-423bf9ae="" id="516b3033-2267-4bd8-8ba2-8eaa2901d5cf" transform="matrix(7.5,0,0,7.5,0,-15)" stroke="none" fill="white"><path d="M7.969 2L6 13.844 5.969 14h2.063l1.969-11.844.031-.156H7.969zM5 3.813l-.531.344-4 2.5L0 6.938v2.126l.469.281 4 2.5.531.344V9.814L2.094 8.001 5 6.188V3.813zm6 0v2.375l2.906 1.813L11 9.814v2.375l.531-.344 4-2.5.469-.281V6.938l-.469-.281-4-2.5L11 3.813z"></path></g><!----></svg>